<svg id="Capa_1" enable-background="new 0 0 511.85 511.85" height="512" viewBox="0 0 511.85 511.85" width="512" xmlns="http://www.w3.org/2000/svg"><g><g><g><path d="m472.377 504.35h-432.905c-11.495 0-20.813-9.318-20.813-20.813v-455.224c0-11.495 9.318-20.813 20.813-20.813h432.905c11.495 0 20.813 9.318 20.813 20.813v455.224c0 11.495-9.318 20.813-20.813 20.813z" fill="#cd7cbb"/></g><g><path d="m493.195 28.317v455.216c0 11.497-9.322 20.818-20.818 20.818h-26.341c11.497 0 20.808-9.322 20.808-20.818v-455.216c0-11.497-9.312-20.818-20.808-20.818h26.341c11.497-.001 20.818 9.321 20.818 20.818z" fill="#c365af"/></g><g><path d="m428.942 458.872h-346.035c-11.495 0-20.813-9.318-20.813-20.813v-364.269c0-11.495 9.318-20.813 20.813-20.813h346.035c11.495 0 20.813 9.318 20.813 20.813v364.269c0 11.495-9.318 20.813-20.813 20.813z" fill="#722d65"/></g><path d="m449.915 73.645v364.56c0 11.51-9.33 20.83-20.83 20.83h-26.37c11.5 0 20.83-9.32 20.83-20.83v-364.56c0-11.51-9.33-20.83-20.83-20.83h26.37c11.5 0 20.83 9.32 20.83 20.83z" fill="#63235a"/></g><g><g><path d="m386.339 226.529c-5.347-9.693-17.541-13.217-27.236-7.869-1.269.7-8.711 4.868-16.815 10.662-3.47-5.978-9.924-10.008-17.334-10.008-11.072 0-20.047 8.975-20.047 20.047v113.896c0 11.072 8.975 20.046 20.047 20.046s20.047-8.975 20.047-20.046v-67.692c.129-.644 1.383-5.414 11.664-16.236 5.088-5.356 16.085-12.394 21.821-15.572 9.682-5.354 13.199-17.54 7.853-27.228z" fill="#cd7cbb"/></g></g><g><path d="m388.843 236.199c0 7.056-3.739 13.902-10.354 17.561-5.743 3.177-16.739 10.214-21.821 15.566-10.284 10.825-11.537 15.596-11.667 16.238v67.199c0 11.231-9.191 20.745-20.42 20.541-3.109-.057-6.045-.821-8.648-2.141 6.535-3.298 11.026-10.073 11.026-17.902l-.571-69.643c-.069-8.362 2.952-16.446 8.48-22.72.931-1.057 1.963-2.185 3.106-3.389 5.092-5.352 16.087-12.399 21.821-15.576 6.615-3.658 10.354-10.504 10.354-17.561 0-2.766-.571-5.553-1.764-8.199 7.197-.14 14.233 3.608 17.952 10.354 1.694 3.077 2.506 6.394 2.506 9.672z" fill="#c365af"/></g><g><g><path d="m250.628 160.32c-14.421-14.041-33.373-21.774-53.367-21.774 0 0-54.065 0-54.202 0-5.449 0-10.365 2.062-14.198 5.895-3.864 3.877-5.848 8.67-5.848 14.152v194.663c0 11.072 8.975 20.046 20.047 20.046s20.047-8.975 20.047-20.046v-64.619c11.928-.063 26.34-.13 34.156-.13 19.994 0 38.946-7.733 53.367-21.773 14.632-14.246 22.689-33.142 22.689-53.207-.002-20.064-8.06-38.961-22.691-53.207zm-53.367 88.095c-7.784 0-22.003.066-33.891.128-.063-12.255-.13-27.06-.13-35.016 0-6.722-.039-22.098-.075-34.888h34.096c19.494 0 35.963 15.977 35.963 34.888s-16.469 34.888-35.963 34.888z" fill="#cd7cbb"/></g></g><g><path d="m250.632 160.323c-14.423-14.043-33.377-21.781-53.374-21.781h-18.042c19.996 0 38.95 7.738 53.374 21.781 25.599 24.928 25.529 66.394 0 91.262-14.423 14.033-33.377 18.707-53.374 18.707-6.505 0-17.571.05-27.975.1-3.418.01-6.174 2.797-6.174 6.214v76.655c0 7.828-4.49 14.604-11.036 17.892 2.716 1.383 5.783 2.155 9.031 2.155 11.066 0 20.047-8.981 20.047-20.047v-64.62c11.928-.07 26.331-.13 34.149-.13 19.996 0 38.95-7.738 53.374-21.781 14.624-14.243 22.683-33.137 22.683-53.203s-8.059-38.961-22.683-53.204z" fill="#c365af"/></g><g><path d="m472.377 0h-133.45c-4.143 0-7.5 3.357-7.5 7.5s3.357 7.5 7.5 7.5h133.45c7.341 0 13.313 5.972 13.313 13.313v455.225c0 7.341-5.972 13.313-13.313 13.313h-432.905c-7.341 0-13.313-5.972-13.313-13.313v-455.225c.001-7.341 5.972-13.313 13.313-13.313h264.288c4.143 0 7.5-3.357 7.5-7.5s-3.357-7.5-7.5-7.5h-264.288c-15.611 0-28.312 12.701-28.312 28.313v455.225c0 15.611 12.701 28.313 28.313 28.313h432.905c15.611 0 28.313-12.701 28.313-28.313v-455.225c-.001-15.612-12.702-28.313-28.314-28.313z"/><path d="m54.594 73.79v364.27c0 15.611 12.701 28.313 28.313 28.313h346.035c15.612 0 28.313-12.701 28.313-28.313v-364.27c0-15.611-12.701-28.313-28.313-28.313h-346.035c-15.612.001-28.313 12.702-28.313 28.313zm387.661 0v364.27c0 7.341-5.973 13.313-13.313 13.313h-346.035c-7.341 0-13.313-5.972-13.313-13.313v-364.27c0-7.341 5.972-13.313 13.313-13.313h346.035c7.341.001 13.313 5.972 13.313 13.313z"/><path d="m143.058 380.803c15.189 0 27.547-12.357 27.547-27.546v-15.659c0-4.143-3.357-7.5-7.5-7.5s-7.5 3.357-7.5 7.5v15.659c0 6.918-5.629 12.546-12.547 12.546s-12.546-5.628-12.546-12.546v-194.664c0-3.489 1.197-6.386 3.651-8.848 2.453-2.454 5.446-3.698 8.895-3.698h54.202c18.028 0 35.123 6.978 48.135 19.647 13.169 12.821 20.422 29.809 20.422 47.833s-7.253 35.012-20.422 47.833c-13.012 12.67-30.106 19.647-48.135 19.647-8.074 0-23.052.07-34.195.13-4.126.022-7.46 3.373-7.46 7.5v14.118c0 4.143 3.357 7.5 7.5 7.5s7.5-3.357 7.5-7.5v-6.655c9.672-.048 20.313-.092 26.655-.092 21.959 0 42.771-8.488 58.6-23.899 16.094-15.67 24.957-36.475 24.957-58.581s-8.863-42.911-24.957-58.581c-15.829-15.412-36.641-23.899-58.6-23.899h-54.202c-7.465 0-14.208 2.798-19.511 8.1-5.257 5.274-8.035 11.999-8.035 19.446v194.664c0 15.187 12.358 27.545 27.546 27.545z"/><path d="m158.094 253.874c1.404 1.39 3.3 2.169 5.275 2.169h.039c16.133-.085 27.522-.128 33.852-.128 23.56 0 43.464-19.411 43.464-42.388s-19.904-42.387-43.464-42.387h-34.096c-1.993 0-3.903.793-5.311 2.204s-2.195 3.324-2.189 5.317c.036 12.782.075 28.148.075 34.866 0 6.437.043 17.903.13 35.054.01 1.989.811 3.894 2.225 5.293zm39.166-67.734c15.429 0 28.464 12.542 28.464 27.388s-13.035 27.388-28.464 27.388c-5.322 0-14.193.03-26.428.09-.063-13.024-.093-22.053-.093-27.478 0-5.443-.025-16.562-.055-27.388z"/><path d="m324.955 380.803c15.189 0 27.547-12.357 27.547-27.546v-66.411c.642-1.337 2.878-5.273 9.601-12.352 4.223-4.443 14.442-11.087 20.013-14.175 13.281-7.343 18.123-24.126 10.792-37.413-7.337-13.3-24.128-18.146-37.428-10.813-1.11.613-5.84 3.264-11.744 7.147-5.038-4.695-11.742-7.427-18.78-7.427-15.188 0-27.546 12.357-27.546 27.547v113.896c-.001 15.189 12.356 27.547 27.545 27.547zm-12.546-141.442c0-6.918 5.628-12.547 12.546-12.547 4.445 0 8.602 2.403 10.848 6.272 1.061 1.827 2.843 3.123 4.907 3.567 2.065.444 4.223-.002 5.941-1.231 7.725-5.523 14.747-9.463 16.074-10.195 6.06-3.345 13.706-1.132 17.047 4.925h.001c3.339 6.052 1.133 13.696-4.922 17.044-4.406 2.441-17.24 10.249-23.623 16.967-10.043 10.571-12.929 16.672-13.58 19.929-.098.484-.146.979-.146 1.473v67.692c0 6.918-5.629 12.546-12.547 12.546s-12.546-5.628-12.546-12.546z"/></g></g></svg>