<?xml version="1.0" encoding="iso-8859-1"?>
<!-- Generator: Adobe Illustrator 19.0.0, SVG Export Plug-In . SVG Version: 6.00 Build 0)  -->
<svg version="1.1" id="Capa_1" xmlns="http://www.w3.org/2000/svg" xmlns:xlink="http://www.w3.org/1999/xlink" x="0px" y="0px"
	 viewBox="0 0 512 512" style="enable-background:new 0 0 512 512;" xml:space="preserve">
<g>
	<g>
		<path d="M467,0H45C20.186,0,0,20.186,0,45v422c0,24.814,20.186,45,45,45h422c24.814,0,45-20.186,45-45V45
			C512,20.186,491.814,0,467,0z M256,391H136c-8.291,0-15-6.709-15-15V136c0-8.291,6.709-15,15-15s15,6.709,15,15v225h105
			c8.291,0,15,6.709,15,15C271,384.291,264.291,391,256,391z M376,241c-24.814,0-45,20.186-45,45v90c0,8.291-6.709,15-15,15
			c-8.291,0-15-6.709-15-15V226c0-8.291,6.709-15,15-15c8.291,0,15,6.709,15,15v0.383C343.574,216.865,359.052,211,376,211
			c8.291,0,15,6.709,15,15S384.291,241,376,241z"/>
	</g>
</g>
<g>
</g>
<g>
</g>
<g>
</g>
<g>
</g>
<g>
</g>
<g>
</g>
<g>
</g>
<g>
</g>
<g>
</g>
<g>
</g>
<g>
</g>
<g>
</g>
<g>
</g>
<g>
</g>
<g>
</g>
</svg>
